{"title":"Red 2 [2013] CAM ReadNFO Xvid - Pioneer222 [DLMafia]","uid":8743143,"size":702752400,"categoryP":"video","categoryS":"movies","magnet":"?xt=urn:btih:902a6dc1d5dae5f465dfe5c8291e7cc5c5491782&amp;dn=Red+2+%5B2013%5D+CAM+ReadNFO+Xvid+-+Pioneer222+%5BDLMafia%5D&amp;tr=udp%3A%2F%2Ftracker.openbittorrent.com%3A80&amp;tr=udp%3A%2F%2Fopen.demonii.com%3A1337&amp;tr=udp%3A%2F%2Ftracker.coppersurfer.tk%3A6969&amp;tr=udp%3A%2F%2Fexodus.desync.com%3A6969","seeders":0,"leechers":0,"uploader":"Jayp53","files":1,"time":1374845642,"description":"[center]\n[size=6]Red 2 [2013] CAM ReadNFO Xvid - Pioneer222 [DLMafia][/size]\n\n[IMG]http://cache.g4tv.com/ImageDb3/315939_S/red-2-trailer-makes-explosive-debut.jpg[/IMG]\n\n\nNote: MISSING 5 MINUTES from the start\n &lt;a href=&quot;\nhttp://www.imdb.com/title/tt1821694/&quot; rel=&quot;nofollow&quot; target=&quot;_NEW&quot;&gt;\nhttp://www.imdb.com/title/tt1821694/&lt;/a&gt;\n\nRetired C.I.A. agent Frank Moses reunites his unlikely team of elite operatives for a global quest to track down a missing portable nuclear device.\n\n\nGeneral\nComplete name                            : C:UsersrootDesktopNew folderRed.2.2013.CAM.ReadNFO.xviD-Pioneer222.avi\nFormat                                   : AVI\nFormat/Info                              : Audio Video Interleave\nFile size                                : 670 MiB\nDuration                                 : 1h 10mn\nOverall bit rate                         : 1 331 Kbps\n\nVideo\nID                                       : 0\nFormat                                   : AVC\nFormat/Info                              : Advanced Video Codec\nFormat profile                           : &lt;a class=&quot;__cf_email__&quot; href=&quot;/cdn-cgi/l/email-protection&quot; data-cfemail=&quot;0548646c6b4549302b34&quot;&gt;[email&amp;#160;protected]&lt;/a&gt;&lt;script cf-hash='f9e31' type=&quot;text/javascript&quot;&gt;\n/* &lt;![CDATA[ */!function(){try{var t=&quot;currentScript&quot;in document?document.currentScript:function(){for(var t=document.getElementsByTagName(&quot;script&quot;),e=t.length;e--;)if(t[e].getAttribute(&quot;cf-hash&quot;))return t[e]}();if(t&amp;&amp;t.previousSibling){var e,r,n,i,c=t.previousSibling,a=c.getAttribute(&quot;data-cfemail&quot;);if(a){for(e=&quot;&quot;,r=parseInt(a.substr(0,2),16),n=2;a.length-n;n+=2)i=parseInt(a.substr(n,2),16)^r,e+=String.fromCharCode(i);e=document.createTextNode(e),c.parentNode.replaceChild(e,c)}}}catch(u){}}();/* ]]&gt; */&lt;/script&gt;\nFormat settings, CABAC                   : Yes\nFormat settings, ReFrames                : 1 frame\nCodec ID                                 : H264\nDuration                                 : 1h 10mn\nBit rate                                 : 1 193 Kbps\nWidth                                    : 1 280 pixels\nHeight                                   : 720 pixels\nDisplay aspect ratio                     : 16:9\nFrame rate                               : 23.976 fps\nColor space                              : YUV\nChroma subsampling                       : 4:2:0\nBit depth                                : 8 bits\nScan type                                : Progressive\nBits/(Pixel*Frame)                       : 0.054\nStream size                              : 601 MiB (90%)\n\nAudio\nID                                       : 1\nFormat                                   : MPEG Audio\nFormat version                           : Version 1\nFormat profile                           : Layer 3\nCodec ID                                 : 55\nCodec ID/Hint                            : MP3\nDuration                                 : 1h 10mn\nBit rate mode                            : Constant\nBit rate                                 : 128 Kbps\nChannel(s)                               : 2 channels\nSampling rate                            : 44.1 KHz\nCompression mode                         : Lossy\nStream size                              : 64.5 MiB (10%)\nAlignment                                : Split accross interleaves\nInterleave, duration                     : 42 ms (1.00 video frame)\nInterleave, preload duration             : 154 ms\n\n\n\n[URL=http://imageshack.us/photo/my-images/441/j3v.png/][IMG]http://imageshack.us/scaled/medium/441/j3v.png[/IMG][/URL]\n[URL=http://imageshack.us/photo/my-images/6/lxva.png/][IMG]http://imageshack.us/scaled/medium/6/lxva.png[/IMG][/URL]\n[URL=http://imageshack.us/photo/my-images/707/z456.png/][IMG]http://imageshack.us/scaled/medium/707/z456.png[/IMG][/URL]\n\n\n\n[/center]","torrent":{"xt":"urn:btih:902a6dc1d5dae5f465dfe5c8291e7cc5c5491782","amp;dn":"Red+2+%5B2013%5D+CAM+ReadNFO+Xvid+-+Pioneer222+%5BDLMafia%5D","amp;tr":["udp%3A%2F%2Ftracker.openbittorrent.com%3A80","udp%3A%2F%2Fopen.demonii.com%3A1337","udp%3A%2F%2Ftracker.coppersurfer.tk%3A6969","udp%3A%2F%2Fexodus.desync.com%3A6969"],"infoHash":"902a6dc1d5dae5f465dfe5c8291e7cc5c5491782","infoHashBuffer":{"type":"Buffer","data":[144,42,109,193,213,218,229,244,101,223,229,200,41,30,124,197,197,73,23,130]},"announce":[],"urlList":[]}}